<svg width="24" height="24" viewBox="0 0 24 24" fill="none" xmlns="http://www.w3.org/2000/svg">
<path d="M15 19H11C10.4696 19 9.96086 18.7893 9.58579 18.4142C9.21071 18.0391 9 17.5304 9 17V11.5C9 10.9696 9.21071 10.4609 9.58579 10.0858C9.96086 9.71071 10.4696 9.5 11 9.5H19C19.5304 9.5 20.0391 9.71071 20.4142 10.0858C20.7893 10.4609 21 10.9696 21 11.5V17C21 17.5304 20.7893 18.0391 20.4142 18.4142C20.0391 18.7893 19.5304 19 19 19H18V21L15 19Z" stroke="white" stroke-width="1.3" stroke-linecap="round" stroke-linejoin="round"/>
<path d="M17.609 9.5V5.435C17.609 5.11523 17.546 4.79859 17.4236 4.50317C17.3013 4.20774 17.1219 3.93931 16.8958 3.7132C16.6697 3.48708 16.4013 3.30772 16.1058 3.18535C15.8104 3.06298 15.4938 3 15.174 3H5.435C4.7892 3 4.16985 3.25654 3.7132 3.7132C3.25654 4.16985 3 4.7892 3 5.435V12.131C3 12.7768 3.25654 13.3962 3.7132 13.8528C4.16985 14.3095 4.7892 14.566 5.435 14.566H6.652V17L9 15.435" stroke="white" stroke-width="1.3" stroke-linecap="round" stroke-linejoin="round"/>
</svg>
