<svg width="20" height="20" viewBox="0 0 20 20" fill="none" xmlns="http://www.w3.org/2000/svg">
<path d="M8.04755 11.869C6.94093 10.7728 6.04656 9.48147 5.40955 8.06004C5.35096 7.92146 5.33546 7.76846 5.36507 7.62095C5.39468 7.47344 5.46802 7.33826 5.57555 7.23304L6.39455 6.41404C7.06555 5.74304 7.06555 4.79404 6.47955 4.20804L5.30555 3.03504C4.9305 2.66009 4.42188 2.44946 3.89155 2.44946C3.36122 2.44946 2.85261 2.66009 2.47755 3.03504L1.82555 3.68604C1.08455 4.42704 0.775552 5.49604 0.975552 6.55604C1.46955 9.16904 2.98755 12.03 5.43655 14.479C7.88555 16.928 10.7466 18.446 13.3596 18.94C14.4196 19.14 15.4886 18.831 16.2296 18.09L16.8806 17.439C17.2555 17.064 17.4661 16.5554 17.4661 16.025C17.4661 15.4947 17.2555 14.9861 16.8806 14.611L15.7076 13.438C15.4263 13.1568 15.0448 12.9989 14.6471 12.9989C14.2493 12.9989 13.8678 13.1568 13.5866 13.438L12.6836 14.342C12.5783 14.4496 12.4431 14.5229 12.2956 14.5525C12.1481 14.5821 11.9951 14.5666 11.8566 14.508C10.4355 13.8699 9.14425 12.9753 8.04755 11.869V11.869Z" stroke="#4E4B66" stroke-linecap="round" stroke-linejoin="round"/>
<path d="M10.9199 3.17008V0.830078" stroke="#4E4B66" stroke-linecap="round" stroke-linejoin="round"/>
<path d="M15.0898 4.82018L16.7398 3.18018" stroke="#4E4B66" stroke-linecap="round" stroke-linejoin="round"/>
<path d="M16.75 9H19.08" stroke="#4E4B66" stroke-linecap="round" stroke-linejoin="round"/>
</svg>
