<svg width="14" height="16" viewBox="0 0 14 16" fill="none" xmlns="http://www.w3.org/2000/svg">
<path d="M13.716 4.11839C13.6969 3.69746 13.6969 3.29567 13.6969 2.89387C13.6969 2.56861 13.4481 2.31988 13.1229 2.31988C10.7312 2.31988 8.91359 1.63109 7.40208 0.157848C7.17249 -0.0526158 6.82809 -0.0526158 6.5985 0.157848C5.08699 1.63109 3.26935 2.31988 0.87772 2.31988C0.552458 2.31988 0.303729 2.56861 0.303729 2.89387C0.303729 3.29567 0.303729 3.69746 0.284596 4.11839C0.208064 8.13632 0.0932651 13.6466 6.80896 15.9617L7.00029 16L7.19162 15.9617C13.8882 13.6466 13.7925 8.15546 13.716 4.11839ZM6.5411 9.6861C6.4263 9.78176 6.29237 9.83916 6.1393 9.83916H6.12017C5.96711 9.83916 5.81404 9.76263 5.71838 9.64783L3.93901 7.67713L4.79999 6.91181L6.1967 8.46158L9.29626 5.5151L10.0807 6.35695L6.5411 9.6861Z" fill="#27AE60"/>
</svg>
